<?xml version="1.0" encoding="UTF-8"?>
<svg width="143px" height="30px" viewBox="0 0 143 30" version="1.1" xmlns="http://www.w3.org/2000/svg" xmlns:xlink="http://www.w3.org/1999/xlink">
    <!-- Generator: Sketch 52.6 (67491) - http://www.bohemiancoding.com/sketch -->
    <title>Group</title>
    <desc>Created with Sketch.</desc>
    <g id="Page-1" stroke="none" stroke-width="1" fill="none" fill-rule="evenodd">
        <g id="Group" fill="#00BFFF">
            <g id="logo" transform="translate(109.000000, 1.000000)">
                <path d="M3.39122361,23.83 L10.46,23.83 C12.55,23.83 14.48,22.79 15.65,21.07 L22,21.07 C22.21,21.07 22.38,20.89 22.38,20.68 L22.38,20.67 C22.38,20.45 22.21,20.28 22,20.28 L16.11,20.28 L17.05,18.38 L17.41,18.38 C19.8,18.38 21.98,17.01 23.05,14.84 L23.99,12.94 L24.35,12.94 C26.73,12.94 28.92,11.57 29.99,9.4 C29.99,9.4 30.68,7.99 31.19,6.97 C31.3,6.74 31.29,6.47 31.16,6.26 C31.03,6.05 30.8,5.92 30.55,5.92 L2.80279412,5.92 C5.43333207,2.33133574 9.67087242,0 14.45,0 C18.52,0 22.21,1.7 24.83,4.42 L33.21,4.42 C33.49,4.42 33.74,4.57 33.89,4.8 C34.03,5.04 34.04,5.33 33.91,5.58 C33.21,6.91 32.04,9.14 31.05,11.02 C30.53,12.01 29.77,12.82 28.86,13.4 C28.89,13.76 28.9,14.13 28.9,14.51 C28.9,15.9 28.7,17.25 28.34,18.53 L29.48,18.53 C30.07,18.53 30.55,19.01 30.55,19.6 C30.55,20.19 30.07,20.67 29.48,20.67 L27.53,20.67 L27.53,20.66 C25.22,25.59 20.23,29 14.45,29 C10.0125367,29 6.04199153,26.9900876 3.39122361,23.83 Z M2.24368584,22.26 C0.8228872,20.0153043 2.13162821e-14,17.3530409 2.13162821e-14,14.5 C2.13162821e-14,11.9462722 0.659285499,9.54539261 1.81651892,7.46 L29.19,7.46 L28.6,8.66 C27.79,10.3 26.14,11.34 24.34,11.34 L10.78,11.34 C10.36,11.34 10.02,11.69 10.02,12.12 L10.02,12.14 C10.02,12.57 10.36,12.92 10.78,12.92 L22.25,12.92 L21.66,14.12 C20.85,15.76 19.2,16.8 17.4,16.8 L8.08,16.8 C7.66,16.8 7.32,17.15 7.32,17.58 L7.32,17.6 C7.32,18.03 7.66,18.38 8.08,18.38 L15.32,18.38 L14.73,19.58 C13.92,21.22 12.27,22.26 10.47,22.26 L3.39,22.26 L2.24368584,22.26 Z M9.53,26.89 C9.74,26.89 9.91,26.72 9.91,26.51 L9.91,26.5 C9.91,26.28 9.74,26.11 9.53,26.11 L8.37,26.11 C8.16,26.11 7.99,26.29 7.99,26.5 C7.99,26.72 8.16,26.89 8.37,26.89 L9.53,26.89 Z M20.58,25.87 C20.79,25.87 20.97,25.7 20.96,25.48 L20.96,25.47 C20.96,25.25 20.79,25.08 20.58,25.08 L11.45,25.08 C11.24,25.08 11.07,25.26 11.07,25.47 L11.07,25.48 C11.07,25.7 11.24,25.87 11.45,25.87 L20.58,25.87 Z M19.17,22.66 C19.38,22.66 19.55,22.48 19.55,22.27 L19.55,22.26 C19.55,22.04 19.38,21.87 19.17,21.87 L16.46,21.87 C16.25,21.87 16.08,22.05 16.08,22.26 L16.08,22.27 C16.08,22.49 16.25,22.66 16.46,22.66 L19.17,22.66 Z M29.07,19.93 C29.28,19.93 29.45,19.75 29.45,19.54 L29.45,19.53 C29.45,19.31 29.28,19.14 29.07,19.14 L19.94,19.14 C19.73,19.14 19.56,19.31 19.56,19.53 L19.56,19.54 C19.56,19.76 19.73,19.93 19.94,19.93 L29.07,19.93 Z" id="Combined-Shape"></path>
            </g>
            <g id="slogan">
                <path d="M66.39,24.71 C67.83,24.71 69,25.9 69,27.36 C69,28.82 67.83,30.01 66.39,30.01 C64.95,30.01 63.78,28.82 63.78,27.36 C63.78,25.89 64.95,24.71 66.39,24.71 Z M61.17,24.71 C62.61,24.71 63.78,25.9 63.78,27.36 C63.78,28.82 62.61,30.01 61.17,30.01 C59.73,30.01 58.56,28.82 58.56,27.36 C58.56,25.89 59.73,24.71 61.17,24.71 Z M50.72,24.71 C52.16,24.71 53.33,25.9 53.33,27.36 C53.33,28.82 52.16,30.01 50.72,30.01 C49.28,30.01 48.11,28.82 48.11,27.36 C48.11,25.89 49.28,24.71 50.72,24.71 Z M55.94,24.71 C57.38,24.71 58.55,25.9 58.55,27.36 C58.55,28.82 57.38,30.01 55.94,30.01 C54.5,30.01 53.33,28.82 53.33,27.36 C53.33,25.89 54.5,24.71 55.94,24.71 Z M45.5,24.71 C46.94,24.71 48.11,25.9 48.11,27.36 C48.11,28.82 46.94,30.01 45.5,30.01 C44.06,30.01 42.89,28.82 42.89,27.36 C42.89,25.89 44.06,24.71 45.5,24.71 Z M68.99,16.21 C68.89,17.76 68.24,19.22 67.15,20.32 C65.96,21.52 64.35,22.2 62.67,22.2 C50.11,22.2 10.59,22.2 3.17,22.2 C2.33,22.2 1.52,21.86 0.93,21.26 C0.33,20.66 0,19.84 0,18.99 C0,18.14 0.33,17.32 0.93,16.72 C1.53,16.12 2.33,15.78 3.17,15.78 L33.96,15.78 L30.55,9.79 C29.52,7.99 30.13,5.68 31.91,4.64 C34.11,3.35 37,1.66 39.09,0.44 C40.6,-0.44 42.52,0.08 43.39,1.61 C43.4,1.62 43.4,1.63 43.41,1.64 C43.83,2.37 43.94,3.24 43.72,4.06 C43.5,4.88 42.98,5.58 42.25,6 C40.56,6.99 38.56,8.16 37.73,8.65 C37.51,8.78 37.44,9.06 37.56,9.28 L41.27,15.79 C41.27,15.79 49.76,15.79 53.22,15.79 C53.6,15.79 53.97,15.64 54.24,15.36 C54.51,15.09 54.66,14.71 54.66,14.33 C54.66,13.33 54.66,12.18 54.66,12.18 C54.66,10.77 55.79,9.63 57.18,9.63 C57.85,9.63 58.49,9.9 58.96,10.38 C59.43,10.86 59.7,11.51 59.7,12.18 C59.7,12.18 59.7,13.33 59.7,14.33 C59.7,15.14 60.35,15.79 61.14,15.79 C61.59,15.79 62.08,15.79 62.53,15.79 C62.91,15.79 63.28,15.64 63.55,15.36 C63.82,15.09 63.97,14.71 63.97,14.33 C63.97,13.33 63.97,12.18 63.97,12.18 C63.97,10.77 65.1,9.63 66.49,9.63 C67.16,9.63 67.8,9.9 68.27,10.38 C68.74,10.86 69.01,11.51 69.01,12.18 L69.01,16.22 L68.99,16.22 L68.99,16.21 Z M87.27,14.5 L87.27,3.21 C87.27,1.44 88.7,0 90.47,0 C90.47,0 90.47,0 90.47,0 C92.24,0 93.67,1.44 93.67,3.21 C93.67,6.48 93.67,11.65 93.67,15.77 C93.67,19.31 90.81,22.18 87.29,22.18 L84.04,22.18 L80.46,28.4 C79.58,29.94 77.62,30.46 76.09,29.57 C76.09,29.57 76.09,29.57 76.09,29.57 C74.56,28.68 74.04,26.72 74.92,25.19 L76.94,21.68 C76.56,21.54 76.19,21.36 75.82,21.15 C72.17,19.04 70.92,14.35 73.03,10.68 C75.14,7.02 79.81,5.76 83.46,7.88 C85.89,9.29 87.26,11.86 87.27,14.5 Z M99.81,0 C100.66,0 101.47,0.34 102.07,0.94 C102.67,1.54 103.01,2.36 103.01,3.2 C103.01,7.41 103.01,14.76 103.01,18.97 C103.01,19.82 102.67,20.63 102.07,21.23 C101.47,21.83 100.66,22.17 99.81,22.17 C99.8,22.17 99.8,22.17 99.79,22.17 C98.94,22.17 98.13,21.83 97.53,21.23 C96.93,20.63 96.6,19.81 96.6,18.97 C96.6,14.76 96.6,7.41 96.6,3.2 C96.6,2.35 96.94,1.54 97.53,0.94 C98.13,0.34 98.94,0 99.79,0 L99.81,0 Z M80.95,12.22 C82.21,12.95 82.65,14.57 81.92,15.84 C81.19,17.11 79.57,17.54 78.31,16.81 C77.05,16.08 76.61,14.46 77.34,13.19 C78.08,11.92 79.69,11.48 80.95,12.22 Z" id="Shape"></path>
            </g>
        </g>
    </g>
</svg>